<?xml version="1.0" encoding="UTF-8" standalone="no"?><svg xmlns:svg="http://www.w3.org/2000/svg" xmlns="http://www.w3.org/2000/svg" version="1.1" style="overflow:visible" viewBox="-250 -250 500 500" height="500px" width="500px"><rect fill-opacity="0" fill="rgb(0,0,0)" height="500" width="500" y="-250" x="-250" /><svg version="1.1" y="-250" x="-250" viewBox="-250 -250 500 500" height="500px" width="500px" style="overflow:visible"><g transform="rotate(0,0,0)" stroke-linejoin="round" fill="#fff"><path stroke-linecap="butt" stroke-linejoin="round" stroke-width="0" stroke-opacity="0" stroke="rgb(0,0,0)" fill="rgb(255,255,255)" d="m46.08-160.24c-14.233-0.1875-35.01 25.223-36.544 78.59c0 0.031899 0 0.0631-0.007 0.0947c-0.007 0.0811-0.0106 0.1624-0.009 0.245v0.0325v19.577c-9.3722 5.4138-19.109 10.086-27.381 15.389c-24.206 15.518-44.15 42.331-45.846 66.797c-1.6642 24.005 5.6421 51.445 42.179 62.854c12.098 3.7778 22.216 4.5892 31.048 3.3731v42.43c0 13.55-10.862 24.463-24.348 24.463c-8.3334 0-15.661-4.1699-20.047-10.551a17.59 17.672 0 0 0 4.494 1.1745a17.59 17.672 0 0 0 19.533-15.476a17.59 17.672 0 0 0-15.402-19.625a17.59 17.672 0 0 0-19.533 15.474a17.59 17.672 0 0 0 0.0192 4.1444c-0.0132 0.129899-0.0211 0.2616-0.0192 0.3954c0 17.137 13.898 31.1 30.955 31.1c16.977 0 30.819-13.834 30.948-30.86c0.0001 0 0-0.007 0-0.008c0.007-0.0773 0.007-0.1547 0.007-0.232v-43.764c6.8783-1.8475 12.979-4.949 18.701-8.7657c14.32-9.5508 20.985-24.471 20.048-36.902c-1.8415-24.429-19.124-40.423-38.749-43.974v-32.346c12.781-8.5196 24.877-18.147 32.984-31.3c16.018999-25.989 22.079-78.384 2.6024-90.682c-1.6938-1.0694-3.5978-1.6208-5.6358-1.6476zm-0.1084 30.048c1.4085 0.0358 2.7894 0.3447 4.1211 0.9567c10.894 5.0059 6.1056 23.362-16.759 49.276c-4.927 5.584-10.874 10.17-17.204 14.243v-15.595v-0.007c0-24.02 16.227-49.221 29.842-48.877zm-36.449 97.87v27.474c-16.967 0.0471-31.508 12.337-34.574 32.332c-3.455 22.529 15.892 33.907 15.892 33.907c5.5354 3.3465 6.6134 0.3233 7.2758-1.9018c-20.452-12.076-9.3845-41.024 11.406-43.218v61.118c-8.0031 1.3065-16.964 0.8264-26.008-2.0223c-22.887-7.2091-31.834-30.583-25.271-57.868c5.568-23.149 28.608-35.413 51.279-49.82zm6.6061 48.794c0.3676 0.0604 0.7356 0.126599 1.107 0.2036c25.462 5.271 26.647 28.868 19.564 43.262c-3.5581 7.2307-11.093 12.945-20.671 15.911v-59.377z" /></g></svg></svg>